<svg width="1089" height="484" fill="none" xmlns="http://www.w3.org/2000/svg">
  <path d="M49.951 411h-27.1V186h27.1v225zm36.328-80.713c0-15.527 3.028-29.492 9.082-41.894 6.153-12.403 14.649-21.973 25.489-28.711 10.937-6.739 23.388-10.108 37.353-10.108 21.582 0 39.014 7.471 52.295 22.412 13.379 14.942 20.068 34.815 20.068 59.619v1.905c0 15.429-2.978 29.297-8.935 41.601-5.86 12.207-14.307 21.729-25.342 28.565-10.937 6.836-23.535 10.254-37.793 10.254-21.484 0-38.916-7.471-52.295-22.412-13.281-14.942-19.922-34.717-19.922-59.327v-1.904zm27.246 3.223c0 17.578 4.053 31.689 12.159 42.334 8.203 10.644 19.14 15.967 32.812 15.967 13.77 0 24.707-5.372 32.813-16.114 8.105-10.84 12.158-25.976 12.158-45.41 0-17.383-4.151-31.445-12.451-42.187-8.204-10.84-19.141-16.26-32.813-16.26-13.379 0-24.17 5.322-32.373 15.967-8.203 10.644-12.305 25.879-12.305 45.703zm248.877 61.816c-10.547 12.403-26.025 18.604-46.435 18.604-16.895 0-29.785-4.883-38.672-14.649-8.789-9.863-13.233-24.414-13.33-43.652V252.504h27.099v102.392c0 24.024 9.766 36.036 29.297 36.036 20.703 0 34.473-7.715 41.309-23.145V252.504h27.1V411h-25.782l-.586-15.674zm61.084-64.892c0-24.317 5.762-43.848 17.285-58.594 11.524-14.844 26.612-22.266 45.264-22.266 18.555 0 33.252 6.348 44.092 19.043V186h27.1v225h-24.903l-1.318-16.992c-10.84 13.281-25.928 19.922-45.264 19.922-18.359 0-33.349-7.52-44.971-22.559-11.523-15.039-17.285-34.668-17.285-58.887v-2.05zm27.1 3.076c0 17.969 3.711 32.031 11.133 42.187 7.422 10.157 17.676 15.235 30.761 15.235 17.188 0 29.737-7.715 37.647-23.145v-72.803c-8.106-14.941-20.557-22.412-37.354-22.412-13.281 0-23.632 5.127-31.054 15.381-7.422 10.254-11.133 25.44-11.133 45.557zm225.439-56.69c-4.101-.683-8.545-1.025-13.33-1.025-17.773 0-29.834 7.568-36.181 22.705V411h-27.1V252.504h26.367l.44 18.31c8.886-14.16 21.484-21.24 37.793-21.24 5.273 0 9.277.684 12.011 2.051v25.195zm101.661 0c-4.102-.683-8.545-1.025-13.331-1.025-17.773 0-29.834 7.568-36.181 22.705V411h-27.1V252.504h26.367l.44 18.31c8.887-14.16 21.484-21.24 37.793-21.24 5.273 0 9.277.684 12.012 2.051v25.195z" fill="url(#icon-transparent__paint0_linear)"/>
  <g clip-path="url(#icon-transparent__clip0)" fill-rule="evenodd" clip-rule="evenodd">
    <path d="M754.71 193.864c14.25-20.11 87.66-124.1 99.14-140.65 11.47-16.556 28.41-19.627 49.09-6.558 20.67 13.068 15 9.128 27.46 17.048l-40.6 60.45c-9.26-3.53-19.59-7.18-30.8 10.76-11.21 17.94-31.98 40.78-52.5 72.43-20.52 31.65-66.03 6.62-51.79-13.48z" fill="#fff"/>
    <path d="M758.76 194.784c11.61-16.73 90.66-130.49 99.13-140.66 8.47-10.162 21.18-17.788 43.21-5.079 5.05 2.913 15 9.129 27.47 17.039l-36.51 53.93c-9.27-3.52-23.64-5.15-33.36 10.39-12.7 20.34-45.71 67.62-55.87 76.94-16.95 22.03-55.69 4.16-44.07-12.56zm61.63 31.1c-5.42-13.12.23-30.15 21.75-32.13l-21.75 32.13z" fill="url(#icon-transparent__paint1_linear)"/>
    <path d="M947.483 0l36.199 25.909-167.58 229.963-47.732 27.14 11.587-53.123L947.483-.001z" fill="#fff"/>
    <path d="M948.31 5.108l30.209 21.646-164.92 226.325-39.883 22.674 9.666-44.32L948.31 5.108z" fill="url(#icon-transparent__paint2_linear)"/>
    <path d="M948.59 74.784c41.58 26.66 93.98 60.93 103.18 66.59 9.12 5.61 26.97 8.17 37.18 8.21v89.52c-48.32.85-211.62 4.81-244.71 5.67-37.13.96-40.02-52.1 0-53.79 40.02-1.69 50.08-3.72 62.79-7.11s25.02-12.17 14.89-26.47c-10.14-14.3-12.18-17.36-17.14-23.3l43.81-59.32z" fill="#fff"/>
    <path d="M946.2 77.354c41.58 26.66 95.79 62.05 103.18 66.59 10.92 6.72 29.35 9.28 39.57 9.32v82.36c-49.14.9-217.6 5.13-244.71 5.65-30.37.59-38.14-45.97 0-47.66 38.14-1.7 50.08-2.22 62.79-5.61s31.11-13.76 18.64-31.35c-7.8-11.01-13.67-19.61-18.64-25.55l39.17-53.75z" fill="url(#icon-transparent__paint3_linear)"/>
  </g>
  <defs>
    <linearGradient id="icon-transparent__paint0_linear" x1="27.419" y1="411" x2="770.586" y2="294.37" gradientUnits="userSpaceOnUse">
      <stop stop-color="#A268DA"/>
      <stop offset="1" stop-color="#5965ED"/>
    </linearGradient>
    <linearGradient id="icon-transparent__paint1_linear" x1="842.596" y1="42.388" x2="842.596" y2="225.884" gradientUnits="userSpaceOnUse">
      <stop stop-color="#AC36C9" stop-opacity=".73"/>
      <stop offset="1" stop-color="#3365E5"/>
    </linearGradient>
    <linearGradient id="icon-transparent__paint2_linear" x1="876.117" y1="5.108" x2="876.117" y2="275.753" gradientUnits="userSpaceOnUse">
      <stop stop-color="#AC36C9" stop-opacity=".73"/>
      <stop offset="1" stop-color="#3365E5"/>
    </linearGradient>
    <linearGradient id="icon-transparent__paint3_linear" x1="953.708" y1="77.354" x2="953.708" y2="241.28" gradientUnits="userSpaceOnUse">
      <stop stop-color="#AC36C9" stop-opacity=".73"/>
      <stop offset="1" stop-color="#3365E5"/>
    </linearGradient>
    <clipPath id="icon-transparent__clip0">
      <path fill="#fff" transform="translate(752)" d="M0 0h336.95v283.02H0z"/>
    </clipPath>
  </defs>
</svg>
